<svg width="26" height="20" viewBox="0 0 26 20" fill="none" xmlns="http://www.w3.org/2000/svg">
<path d="M8.67089 17.2344L1.37557 17.2344C0.926042 17.2344 0.563171 17.6302 0.563171 18.1206L0.563172 18.8769L9.48329 18.8769L9.48329 18.1206C9.48328 17.6302 9.12041 17.2344 8.67089 17.2344Z" fill="#01050B"/>
<path d="M9.53212 18.8772L0.514518 18.8772C0.227471 18.8772 2.16941e-08 19.1253 4.90699e-08 19.4385C7.59292e-08 19.7457 0.227471 19.9998 0.514518 19.9998L9.53212 19.9998C9.81375 19.9998 10.0466 19.7516 10.0466 19.4385C10.0466 19.1253 9.81375 18.8772 9.53212 18.8772Z" fill="#01050B"/>
<path d="M24.5558 12.9688L8.52994 7.3204L9.62939 4.21851L4.26215 1.94971L1.25629 10.4282L6.62352 12.697L7.72296 9.59512L23.061 17.1873C24.1496 17.725 25.4278 17.1578 25.8611 15.9407C26.2889 14.7295 25.6932 13.3706 24.5558 12.9688Z" fill="white"/>
<path d="M0.065004 11.0187C-0.119139 11.5387 0.119164 12.1295 0.59577 12.3304L5.93592 14.5874C6.41253 14.7883 6.95413 14.5283 7.13827 14.0084C7.32241 13.4884 7.08411 12.8976 6.6075 12.6967L1.26735 10.4397C0.785329 10.2329 0.249147 10.4929 0.065004 11.0187Z" fill="white"/>
<path d="M3.74231 0.650088C3.55817 1.17002 3.79647 1.76086 4.27308 1.96174L9.61323 4.21873C10.0898 4.41962 10.6314 4.15965 10.8156 3.63971C10.9997 3.11978 10.7614 2.52894 10.2848 2.32806L4.94466 0.071069C4.46805 -0.135723 3.92645 0.124245 3.74231 0.650088Z" fill="white"/>
</svg>
