<svg width="25" height="18" viewBox="0 0 25 18" fill="none" xmlns="http://www.w3.org/2000/svg">
<path d="M16.6626 15.5112L23.6773 15.5112C24.1096 15.5112 24.4585 15.8675 24.4585 16.3089L24.4585 16.9895L15.8815 16.9895L15.8815 16.3089C15.8815 15.8675 16.2304 15.5112 16.6626 15.5112Z" fill="white"/>
<path d="M15.8346 16.9897L24.5053 16.9897C24.7813 16.9897 25.0001 17.2131 25.0001 17.4949C25.0001 17.7714 24.7813 18.0001 24.5053 18.0001L15.8346 18.0001C15.5638 18.0001 15.3399 17.7768 15.3399 17.4949C15.3399 17.2131 15.5638 16.9897 15.8346 16.9897Z" fill="white"/>
<path d="M1.38878 11.672L16.7982 6.58834L15.7411 3.7966L20.9019 1.75464L23.7921 9.3854L18.6313 11.4274L17.5742 8.63562L2.8261 15.4687C1.77936 15.9527 0.550351 15.4422 0.133739 14.3467C-0.277665 13.2566 0.295176 12.0336 1.38878 11.672Z" fill="white"/>
<path d="M24.9376 9.91736C25.1147 10.3853 24.8856 10.9171 24.4273 11.0979L19.2925 13.1292C18.8343 13.31 18.3135 13.076 18.1364 12.6081C17.9594 12.1401 18.1885 11.6084 18.6468 11.4276L23.7815 9.39624C24.245 9.21012 24.7606 9.4441 24.9376 9.91736Z" fill="white"/>
<path d="M21.4017 0.585089C21.5788 1.05304 21.3497 1.5848 20.8914 1.7656L15.7566 3.79692C15.2984 3.97772 14.7776 3.74375 14.6006 3.2758C14.4235 2.80785 14.6526 2.27609 15.1109 2.09529L20.2456 0.0639634C20.7039 -0.122153 21.2247 0.111822 21.4017 0.585089Z" fill="white"/>
</svg>
