<svg width="16" height="18" viewBox="0 0 16 18" fill="none" xmlns="http://www.w3.org/2000/svg">
<path d="M3.55556 9H5.33333V10.8H3.55556V9Z" fill="#1C89EE"/>
<path d="M3.55556 12.6H5.33333V14.4H3.55556V12.6Z" fill="#1C89EE"/>
<path d="M8.88889 9H7.11111V10.8H8.88889V9Z" fill="#1C89EE"/>
<path d="M7.11111 12.6H8.88889V14.4H7.11111V12.6Z" fill="#1C89EE"/>
<path d="M12.4444 9H10.6667V10.8H12.4444V9Z" fill="#1C89EE"/>
<path d="M10.6667 12.6H12.4444V14.4H10.6667V12.6Z" fill="#1C89EE"/>
<path fill-rule="evenodd" clip-rule="evenodd" d="M14.2222 18H1.77778C0.797333 18 0 17.1927 0 16.2V3.6C0 2.6073 0.797333 1.8 1.77778 1.8H3.55556V0H5.33333V1.8H10.6667V0H12.4444V1.8H14.2222C15.2027 1.8 16 2.6073 16 3.6V16.2C16 17.1927 15.2027 18 14.2222 18ZM14.2223 5.4L14.2222 3.6H1.77778V5.4H14.2223ZM14.2225 7.2L14.2231 16.2H1.77778V7.2H14.2225Z" fill="#1C89EE"/>
</svg>
