<svg width="40" height="31" viewBox="0 0 40 31" fill="none" xmlns="http://www.w3.org/2000/svg">
<path d="M26.6602 26.3318L37.8837 26.3318C38.5753 26.3318 39.1336 26.9256 39.1336 27.6612L39.1336 28.7956L25.4104 28.7956L25.4104 27.6612C25.4104 26.9256 25.9686 26.3318 26.6602 26.3318Z" fill="#01050B"/>
<path d="M25.3353 28.7959L39.2084 28.7959C39.65 28.7959 40 29.1681 40 29.6378C40 30.0987 39.65 30.4798 39.2084 30.4798L25.3353 30.4798C24.902 30.4798 24.5437 30.1076 24.5437 29.6378C24.5437 29.1681 24.902 28.7959 25.3353 28.7959Z" fill="#01050B"/>
<path d="M2.222 19.933L26.8771 11.4604L25.1856 6.80754L33.4429 3.4043L38.0673 16.1221L29.81 19.5254L28.1186 14.8725L4.5217 26.2609C2.84692 27.0674 0.880514 26.2166 0.213934 24.3909C-0.444311 22.5741 0.472234 20.5357 2.222 19.933Z" fill="#1C89EE"/>
<path d="M39.9001 17.0086C40.1834 17.7885 39.8167 18.6748 39.0835 18.9761L30.8679 22.3616C30.1347 22.6629 29.3015 22.273 29.0182 21.4931C28.7349 20.7132 29.1015 19.8269 29.8347 19.5256L38.0503 16.1401C38.7919 15.8299 39.6168 16.2198 39.9001 17.0086Z" fill="#1C89EE"/>
<path d="M34.2427 1.45512C34.526 2.23503 34.1594 3.12129 33.4261 3.42262L25.2106 6.80813C24.4773 7.10946 23.6441 6.7195 23.3608 5.93959C23.0775 5.15969 23.4441 4.27343 24.1774 3.9721L32.3929 0.586585C33.1262 0.276394 33.9594 0.666349 34.2427 1.45512Z" fill="#1C89EE"/>
</svg>
