<svg width="30" height="30" viewBox="0 0 30 30" fill="none" xmlns="http://www.w3.org/2000/svg">
<path d="M27.8099 5.82C26.9999 5.19 27.2699 4.11 26.5499 3.3C26.2199 2.94 25.8599 2.67 25.4099 2.49C24.8999 2.25 24.1799 2.37 23.6699 2.1C22.8899 1.71 22.7699 0.75 21.6599 0.75C20.6999 0.75 20.2199 1.44 20.0999 2.31C20.0399 2.88 19.9799 3.45 19.9799 4.02C19.9199 4.2 19.8599 4.41 19.8599 4.62C19.8299 5.1 19.7999 5.61 19.7999 6.12C18.5399 5.91 17.2499 5.97 16.0199 6.3C13.0199 6.12 9.92994 7.77 7.64994 9.57C6.23994 10.71 5.03994 12.09 4.10994 13.65C4.10994 13.68 4.07994 13.68 4.07994 13.71C3.29994 14.1 2.54994 14.61 1.88994 15.18C1.58994 15.45 1.49994 15.87 1.58994 16.26C1.64994 16.89 2.18994 17.37 2.84994 17.34C2.90994 17.34 2.96994 17.34 3.02994 17.31C3.11994 17.28 3.20994 17.28 3.29994 17.25C3.32994 17.34 3.35994 17.43 3.38994 17.52C3.38994 17.61 3.38994 17.7 3.38994 17.79C3.89994 23.22 7.91994 27.27 13.3499 27.72C13.4099 27.87 13.4399 28.02 13.4999 28.14C13.7099 28.68 14.2799 29.13 14.9099 28.92C15.1199 28.86 15.2999 28.74 15.4499 28.59C15.6899 28.5 15.8999 28.32 16.0499 28.11L16.9199 26.64C18.7799 25.95 20.3099 24.36 21.4199 22.68C21.6599 22.29 21.8999 21.9 22.0799 21.51C23.3099 19.77 24.0599 17.76 24.1799 15.63C24.3899 13.92 24.3899 12.18 24.2399 10.47C25.8599 9.6 28.6799 10.29 28.9799 7.92C29.0999 6.96 28.5299 6.36 27.8099 5.82Z" fill="#1C89EE"/>
<path d="M28.8301 8.27995C28.5601 7.85995 28.2601 7.46995 27.8701 7.13995C27.7201 6.98995 27.6001 6.83995 27.4501 6.68995C27.3601 6.56995 27.2701 6.38995 27.2401 6.23995C27.2101 6.08995 27.1801 5.96995 27.1801 5.81995C27.1801 5.63995 27.1501 5.45995 27.1501 5.24995C27.0001 4.31995 26.3101 3.56995 25.4101 3.29995C24.9601 3.20995 24.5101 3.14995 24.0601 3.14995C23.8801 3.14995 23.7001 3.11995 23.5501 3.05995C23.4001 2.99995 23.2801 2.93995 23.1901 2.84995C23.1001 2.75995 23.0401 2.63995 22.9801 2.51995C22.8901 2.33995 22.8001 2.18995 22.7101 2.03995C22.5301 1.76995 22.2601 1.52995 21.9601 1.40995C21.6601 1.25995 21.3301 1.19995 21.0001 1.19995C20.7301 1.19995 20.4601 1.25995 20.2201 1.34995C20.0701 1.40995 19.9801 1.52995 19.9801 1.67995L19.4401 5.87995C19.2601 5.03995 18.9601 4.19995 18.5701 3.41995C18.4801 3.26995 18.3901 3.11995 18.3001 2.96995C18.1801 2.81995 18.0301 2.66995 17.8801 2.54995C17.5801 2.36995 17.2501 2.27995 16.9201 2.27995C16.8901 2.27995 16.8601 2.27995 16.8001 2.27995C16.5301 2.27995 16.2601 2.30995 16.0201 2.42995C15.7201 2.57995 15.4501 2.81995 15.3001 3.11995C15.0601 3.56995 15.0001 4.10995 15.1501 4.58995C15.2701 4.94995 15.4501 5.27995 15.7201 5.57995C15.9601 5.84995 16.2301 6.08995 16.5301 6.26995C16.6501 6.32995 16.7401 6.41995 16.8601 6.47995C16.5301 6.44995 16.2301 6.44995 15.8701 6.44995C15.3901 6.44995 14.8801 6.47995 14.3701 6.50995C12.9301 6.65995 9.45006 7.01995 6.33006 9.68995C5.01006 10.83 3.93006 12.24 3.15006 13.8C3.09006 13.92 3.00006 14.01 2.88006 14.1L1.62006 14.97C1.02006 15.36 0.870064 16.17 1.26006 16.77C1.35006 16.95 1.50006 17.1 1.71006 17.19L2.52006 17.61C2.70006 17.7 2.82006 17.88 2.85006 18.06C3.30006 20.31 4.35006 22.38 5.94006 24.06C7.71006 25.92 9.99006 27.18 12.5101 27.72C12.6301 27.75 12.7201 27.81 12.7801 27.87L13.6201 28.77C14.2201 29.4 15.2101 29.43 15.8401 28.83C15.8701 28.8 15.8701 28.8 15.9001 28.77L17.2801 27.33C17.3401 27.27 17.4001 27.24 17.4601 27.21C19.6201 25.98 21.3901 24.15 22.5601 21.96C23.6401 19.92 23.8801 17.76 23.8801 15.87C23.8801 14.85 23.8201 13.89 23.7601 13.08C23.7301 12.42 23.6401 11.82 23.5801 11.37C24.6601 10.56 25.9501 10.08 27.3001 10.02C27.6001 10.02 27.9301 9.95995 28.2001 9.86995C28.3801 9.80995 28.5301 9.71995 28.6501 9.59995C28.8001 9.44995 28.8901 9.26995 28.9201 9.05995C28.9201 8.99995 28.9201 8.96995 28.9201 8.90995C28.9801 8.63995 28.9201 8.45995 28.8301 8.27995ZM15.1501 8.15995C15.2101 8.00995 15.3301 7.88995 15.4501 7.76995C15.6601 7.61995 15.9301 7.49995 16.2001 7.46995C16.5001 7.40995 16.8301 7.37995 17.1301 7.37995C17.1601 7.37995 17.2201 7.37995 17.2501 7.34995C17.9701 7.40995 18.6601 7.52995 19.3501 7.70995C19.3801 7.73995 19.4101 7.76995 19.4101 7.79995C19.0801 8.33995 18.6601 8.81995 18.1801 9.23995C17.9101 9.44995 17.6401 9.65995 17.3401 9.77995C17.0701 9.89995 16.7701 9.98995 16.4701 9.98995C16.2001 9.98995 15.9301 9.92995 15.6901 9.77995C15.5101 9.65995 15.3301 9.50995 15.2401 9.29995C15.1201 9.08995 15.0601 8.81995 15.0601 8.57995C15.0601 8.42995 15.0901 8.27995 15.1501 8.15995ZM16.2901 5.00995C16.1101 4.82995 15.9901 4.58995 15.9001 4.34995C15.8101 4.07995 15.8401 3.77995 15.9901 3.53995C16.0501 3.41995 16.1701 3.29995 16.2901 3.23995C16.4401 3.17995 16.5901 3.14995 16.7101 3.17995C16.7401 3.17995 16.7701 3.17995 16.8001 3.17995C16.9801 3.17995 17.1601 3.20995 17.3401 3.29995C17.4301 3.35995 17.4901 3.41995 17.5501 3.50995C17.6101 3.62995 17.7001 3.71995 17.7601 3.83995C18.1501 4.58995 18.4501 5.39995 18.6001 6.23995C18.6001 6.26995 18.6301 6.32995 18.6301 6.35995C18.5701 6.32995 18.4801 6.32995 18.3901 6.29995C17.8801 6.11995 17.4001 5.87995 16.9501 5.57995C16.7101 5.39995 16.4701 5.21995 16.2901 5.00995ZM21.8101 21.54C20.7001 23.58 19.0501 25.29 17.0401 26.43C16.9201 26.52 16.8001 26.61 16.6801 26.7L15.3001 28.17C15.0301 28.44 14.5801 28.47 14.2801 28.2L14.2501 28.17C14.1001 28.02 13.9801 27.87 13.8301 27.75H13.8601C14.1001 27.75 14.2801 27.54 14.2801 27.3C14.2801 27.06 14.0701 26.88 13.8301 26.88C13.7701 26.88 13.7401 26.88 13.6801 26.88C13.4101 26.88 13.1401 26.85 12.8701 26.82C12.7801 26.82 12.6901 26.82 12.6001 26.85C10.2901 26.34 8.16006 25.17 6.51006 23.46C5.04006 21.9 4.05006 19.98 3.63006 17.88C3.54006 17.43 3.24006 17.04 2.85006 16.83L2.10006 16.44C2.01006 16.41 1.95006 16.35 1.92006 16.26C1.89006 16.2 1.86006 16.11 1.86006 16.02C1.86006 15.87 1.92006 15.72 2.07006 15.66L3.33006 14.79C3.57006 14.64 3.75006 14.43 3.87006 14.16C4.59006 12.69 5.61006 11.37 6.84006 10.32C9.72006 7.82995 12.9901 7.46995 14.4001 7.34995C14.4901 7.34995 14.5801 7.34995 14.6701 7.31995C14.5501 7.46995 14.4601 7.61995 14.3701 7.76995C14.2501 8.00995 14.1901 8.27995 14.2201 8.57995C14.2201 8.96995 14.3101 9.35995 14.4901 9.68995C14.6701 10.05 14.9401 10.35 15.3001 10.53C15.6601 10.71 16.0501 10.83 16.4701 10.83C16.8901 10.83 17.3101 10.74 17.7001 10.56C18.2701 10.29 18.7801 9.89995 19.2001 9.44995C19.5001 9.14995 19.7701 8.81995 20.0101 8.48995C20.4001 8.93995 20.8201 9.38995 21.2701 9.86995C21.7801 10.38 22.2601 10.83 22.7401 11.25C22.8001 11.7 22.8901 12.36 22.9501 13.11C23.0101 13.92 23.0701 14.88 23.0701 15.87C23.0401 17.67 22.8001 19.68 21.8101 21.54ZM28.1401 8.87995C28.1401 8.90995 28.1401 8.93995 28.1101 8.93995C28.0201 8.99995 27.9301 9.05995 27.8101 9.05995C27.6301 9.08995 27.4801 9.11995 27.3001 9.11995C25.8301 9.17995 24.4201 9.68995 23.2501 10.56C22.8001 10.17 22.3501 9.74995 21.8701 9.26995C21.2401 8.63995 20.6401 7.97995 20.1001 7.25995C20.3401 5.51995 20.5501 3.77995 20.7901 2.03995C20.8801 2.00995 20.9401 2.00995 21.0301 2.00995C21.2401 2.00995 21.4201 2.06995 21.6001 2.15995C21.7801 2.24995 21.9301 2.36995 22.0501 2.51995C22.1401 2.63995 22.2001 2.78995 22.2901 2.90995C22.3801 3.08995 22.5001 3.26995 22.6501 3.41995C22.6801 3.44995 22.7101 3.44995 22.7101 3.47995C22.3501 3.92995 22.0501 4.37995 21.7501 4.85995C21.6301 5.06995 21.6901 5.30995 21.9001 5.42995C22.1101 5.54995 22.3501 5.48995 22.4701 5.27995C22.7401 4.82995 23.0401 4.37995 23.4001 3.95995C23.4301 3.92995 23.4301 3.89995 23.4601 3.86995C23.7601 3.92995 24.0601 3.98995 24.3601 3.98995C24.6601 3.98995 24.9601 4.01995 25.2301 4.07995C25.8001 4.25995 26.2501 4.73995 26.3401 5.33995C26.3701 5.48995 26.3701 5.63995 26.3701 5.81995C26.3701 5.90995 26.3701 6.02995 26.4001 6.14995C26.3701 6.14995 26.3401 6.17995 26.3401 6.17995C25.6501 6.65995 24.9301 7.10995 24.2101 7.55995C24.0001 7.67995 23.9401 7.94995 24.0601 8.12995C24.1801 8.30995 24.4501 8.39995 24.6301 8.27995C25.3201 7.85995 25.9801 7.40995 26.6401 6.95995C26.6701 7.01995 26.7301 7.07995 26.7601 7.13995C26.9701 7.43995 27.2401 7.70995 27.5101 7.94995C27.7201 8.15995 27.9301 8.39995 28.0801 8.63995C28.1101 8.72995 28.1101 8.78995 28.1401 8.87995Z" fill="#01050B"/>
<path d="M16.4101 12.3001C16.1101 12.5401 15.8101 12.8101 15.5401 13.0801C15.0901 12.7801 14.5501 12.6301 14.0101 12.6301C13.9201 12.6301 13.8301 12.6301 13.7401 12.6301C13.0801 12.6901 12.4801 12.9901 12.0001 13.4401C11.7901 13.6501 11.5801 13.8901 11.4601 14.1601C11.3101 14.4301 11.2501 14.7301 11.2201 15.0301V15.0601C11.2201 15.4801 11.3701 15.9001 11.6101 16.2301C11.8201 16.5301 12.0901 16.8301 12.3601 17.1001C12.6301 17.3701 12.9301 17.6101 13.2601 17.8501C13.4701 18.0001 13.6501 18.1801 13.7701 18.3901C13.9801 18.6901 14.1001 19.0201 14.1301 19.3801C14.1301 19.4701 14.1301 19.5301 14.1001 19.6201C14.0401 19.8601 13.9201 20.1001 13.7401 20.2501C13.5901 20.4001 13.4401 20.4901 13.2901 20.6101C12.9301 20.8201 12.5101 20.9401 12.0901 20.9401C11.9701 20.9401 11.8801 20.9401 11.7601 20.9101C11.2801 20.8201 10.8301 20.6101 10.5001 20.2801C10.1701 19.9501 9.9001 19.5301 9.7501 19.0801C9.6601 18.8401 9.6001 18.6001 9.6001 18.3301C9.6001 17.9701 9.6601 17.5801 9.8101 17.2501C9.9001 17.0401 9.7801 16.7701 9.5701 16.7101C9.3601 16.6201 9.1201 16.7401 9.0301 16.9501C8.8501 17.4001 8.7601 17.8801 8.7601 18.3601C8.7601 18.6901 8.8201 19.0501 8.9101 19.3801C9.0301 19.7701 9.2101 20.1301 9.4501 20.4301C9.2101 20.7001 9.0001 20.9401 8.7901 21.2401C8.6401 21.4201 8.6701 21.6901 8.8801 21.8401C9.0601 21.9901 9.3301 21.9601 9.4801 21.7501C9.6601 21.5101 9.8401 21.3001 10.0501 21.0601C10.5001 21.4501 11.0401 21.6901 11.6401 21.7801C11.7901 21.8101 11.9401 21.8101 12.0901 21.8101C12.6601 21.8101 13.2601 21.6601 13.7401 21.3601C13.9501 21.2401 14.1601 21.0601 14.3401 20.8801C14.6401 20.5801 14.8501 20.2201 14.9401 19.8301C14.9701 19.6801 14.9701 19.5601 14.9701 19.4101C14.9401 18.9001 14.7901 18.3901 14.4901 17.9701C14.3101 17.6701 14.0401 17.4001 13.7401 17.1901C13.4701 17.0101 13.2001 16.8001 12.9601 16.5601C12.7201 16.3201 12.5101 16.0801 12.3001 15.8101C12.1501 15.6001 12.0601 15.3601 12.0301 15.1201V15.0901C12.0301 14.9101 12.0901 14.7601 12.1501 14.5801C12.3001 14.2801 12.5101 14.0401 12.7801 13.8601C13.0801 13.6501 13.4101 13.5301 13.7401 13.5001C13.8001 13.5001 13.8601 13.5001 13.9201 13.5001C14.5801 13.5001 15.2101 13.8301 15.5701 14.3701C15.8101 14.7001 15.9301 15.0901 15.9001 15.4801C15.9001 15.7801 15.8401 16.0501 15.7501 16.3201C15.6601 16.5301 15.7501 16.8001 15.9601 16.8901C16.1701 16.9801 16.4401 16.8901 16.5301 16.6801C16.6801 16.2901 16.7701 15.9001 16.7701 15.4801C16.7701 14.9101 16.5901 14.3401 16.2901 13.8601C16.2301 13.7701 16.1701 13.7101 16.1101 13.6501C16.3501 13.4101 16.5901 13.2001 16.8601 12.9901C17.0401 12.8401 17.1001 12.5701 16.9501 12.3901C16.8601 12.2101 16.5901 12.1501 16.4101 12.3001Z" fill="#01050B"/>
</svg>
