<svg width="18" height="18" viewBox="0 0 18 18" fill="none" xmlns="http://www.w3.org/2000/svg">
<path d="M9 18C10.78 18 12.5201 17.4722 14.0001 16.4832C15.4802 15.4943 16.6337 14.0887 17.3149 12.4442C17.9961 10.7996 18.1743 8.99002 17.8271 7.24419C17.4798 5.49836 16.6226 3.89471 15.364 2.63604C14.1053 1.37737 12.5016 0.520203 10.7558 0.172936C9.00998 -0.17433 7.20038 0.00389953 5.55585 0.685088C3.91131 1.36628 2.50571 2.51983 1.51677 3.99987C0.52784 5.47991 0 7.21997 0 9C0.00312546 11.386 0.95234 13.6734 2.63949 15.3605C4.32664 17.0477 6.61401 17.9969 9 18ZM9 1.125C10.5575 1.125 12.0801 1.58686 13.3751 2.45218C14.6701 3.3175 15.6795 4.5474 16.2755 5.98637C16.8716 7.42534 17.0275 9.00874 16.7237 10.5363C16.4198 12.0639 15.6698 13.4671 14.5685 14.5685C13.4671 15.6698 12.0639 16.4198 10.5363 16.7237C9.00873 17.0275 7.42533 16.8716 5.98637 16.2756C4.5474 15.6795 3.31749 14.6702 2.45218 13.3751C1.58686 12.0801 1.125 10.5575 1.125 9C1.12723 6.91211 1.95764 4.91037 3.434 3.434C4.91037 1.95764 6.9121 1.12724 9 1.125Z" fill="#1C89EE"/>
<path d="M3.3753 9.00061C3.3753 9.14979 3.31604 9.29287 3.21055 9.39836C3.10506 9.50385 2.96199 9.56311 2.8128 9.56311H2.27899C2.34577 10.3641 2.55632 11.1464 2.90055 11.8727L3.36068 11.6072C3.42467 11.5697 3.49546 11.5452 3.56896 11.5352C3.64246 11.5251 3.71722 11.5297 3.78893 11.5487C3.86065 11.5676 3.92791 11.6006 3.98684 11.6457C4.04577 11.6907 4.0952 11.747 4.1323 11.8112C4.16939 11.8755 4.19341 11.9464 4.20297 12.02C4.21253 12.0936 4.20745 12.1683 4.18801 12.2399C4.16857 12.3115 4.13517 12.3785 4.08972 12.4371C4.04426 12.4958 3.98767 12.5448 3.92318 12.5815L3.46137 12.8481C3.92122 13.5071 4.49382 14.0797 5.1528 14.5395L5.41943 14.0777C5.45609 14.0132 5.50515 13.9566 5.56378 13.9112C5.62241 13.8657 5.68945 13.8323 5.76104 13.8129C5.83263 13.7935 5.90736 13.7884 5.98092 13.7979C6.05448 13.8075 6.12543 13.8315 6.18967 13.8686C6.25392 13.9057 6.31019 13.9551 6.35525 14.0141C6.40031 14.073 6.43327 14.1403 6.45223 14.212C6.47119 14.2837 6.47578 14.3585 6.46573 14.432C6.45568 14.5055 6.43119 14.5762 6.39368 14.6402L6.12818 15.1004C6.85447 15.4446 7.63684 15.6551 8.4378 15.7219V15.1881C8.4378 15.0389 8.49706 14.8959 8.60255 14.7904C8.70804 14.6849 8.85112 14.6256 9.0003 14.6256C9.14948 14.6256 9.29256 14.6849 9.39805 14.7904C9.50354 14.8959 9.5628 15.0389 9.5628 15.1881V15.7219C10.3638 15.6552 11.1462 15.4447 11.8724 15.1004L11.6069 14.6402C11.5694 14.5762 11.5449 14.5055 11.5349 14.432C11.5248 14.3585 11.5294 14.2837 11.5484 14.212C11.5673 14.1403 11.6003 14.073 11.6453 14.0141C11.6904 13.9551 11.7467 13.9057 11.8109 13.8686C11.8752 13.8315 11.9461 13.8075 12.0197 13.7979C12.0932 13.7884 12.168 13.7935 12.2396 13.8129C12.3112 13.8323 12.3782 13.8657 12.4368 13.9112C12.4954 13.9566 12.5445 14.0132 12.5812 14.0777L12.8478 14.5395C13.507 14.08 14.0797 13.5074 14.5392 12.8481L14.0774 12.5815C14.0129 12.5448 13.9563 12.4958 13.9109 12.4371C13.8654 12.3785 13.832 12.3115 13.8126 12.2399C13.7932 12.1683 13.7881 12.0936 13.7976 12.02C13.8072 11.9464 13.8312 11.8755 13.8683 11.8112C13.9054 11.747 13.9548 11.6907 14.0138 11.6457C14.0727 11.6006 14.1399 11.5676 14.2117 11.5487C14.2834 11.5297 14.3581 11.5251 14.4316 11.5352C14.5051 11.5452 14.5759 11.5697 14.6399 11.6072L15.1 11.8727C15.4443 11.1464 15.6548 10.3641 15.7216 9.56311H15.1878C15.0386 9.56311 14.8955 9.50385 14.79 9.39836C14.6846 9.29287 14.6253 9.14979 14.6253 9.00061C14.6253 8.85143 14.6846 8.70835 14.79 8.60286C14.8955 8.49737 15.0386 8.43811 15.1878 8.43811H15.7216C15.6557 7.63733 15.4461 6.85496 15.1029 6.12848L14.6427 6.39399C14.5136 6.4674 14.3607 6.48676 14.2173 6.44784C14.074 6.40893 13.9519 6.31489 13.8776 6.18625C13.8033 6.05761 13.7829 5.90482 13.8209 5.76122C13.8589 5.61761 13.9521 5.49486 14.0802 5.41973L14.542 5.15311C14.0825 4.49387 13.5099 3.92121 12.8506 3.46167L12.584 3.92348C12.5089 4.05163 12.3861 4.14485 12.2425 4.18282C12.0989 4.22079 11.9461 4.20041 11.8175 4.12614C11.6888 4.05187 11.5948 3.92973 11.5559 3.78638C11.517 3.64303 11.5363 3.49011 11.6097 3.36098L11.8752 2.90086C11.1481 2.55623 10.3647 2.34566 9.5628 2.2793V2.81311C9.5628 2.96229 9.50354 3.10537 9.39805 3.21086C9.29256 3.31635 9.14948 3.37561 9.0003 3.37561C8.85112 3.37561 8.70804 3.31635 8.60255 3.21086C8.49706 3.10537 8.4378 2.96229 8.4378 2.81311V2.2793C7.63684 2.34607 6.85447 2.55662 6.12818 2.90086L6.39368 3.36098C6.43119 3.42498 6.45568 3.49577 6.46573 3.56926C6.47578 3.64276 6.47119 3.71752 6.45223 3.78924C6.43327 3.86096 6.40031 3.92822 6.35525 3.98715C6.31019 4.04608 6.25392 4.09551 6.18967 4.1326C6.12543 4.16969 6.05448 4.19371 5.98092 4.20327C5.90736 4.21284 5.83263 4.20775 5.76104 4.18832C5.68945 4.16888 5.62241 4.13547 5.56378 4.09002C5.50515 4.04457 5.45609 3.98797 5.41943 3.92348L5.1528 3.46167C4.49382 3.92153 3.92122 4.49413 3.46137 5.15311L3.92318 5.41973C3.98767 5.4564 4.04426 5.50546 4.08972 5.56409C4.13517 5.62272 4.16857 5.68975 4.18801 5.76135C4.20745 5.83294 4.21253 5.90766 4.20297 5.98123C4.19341 6.05479 4.16939 6.12574 4.1323 6.18998C4.0952 6.25423 4.04577 6.3105 3.98684 6.35556C3.92791 6.40062 3.86065 6.43358 3.78893 6.45254C3.71722 6.4715 3.64246 6.47609 3.56896 6.46604C3.49546 6.45599 3.42467 6.4315 3.36068 6.39399L2.90055 6.12848C2.55632 6.85477 2.34577 7.63715 2.27899 8.43811H2.8128C2.96199 8.43811 3.10506 8.49737 3.21055 8.60286C3.31604 8.70835 3.3753 8.85143 3.3753 9.00061ZM6.21593 6.21624C6.32141 6.11078 6.46446 6.05154 6.61361 6.05154C6.76277 6.05154 6.90582 6.11078 7.0113 6.21624L8.27749 7.48186C8.50216 7.37048 8.74953 7.31252 9.0003 7.31252C9.25107 7.31252 9.49844 7.37048 9.72311 7.48186L11.7847 5.4203C11.8908 5.31783 12.0328 5.26114 12.1803 5.26242C12.3278 5.2637 12.4689 5.32286 12.5732 5.42715C12.6775 5.53144 12.7366 5.67252 12.7379 5.82001C12.7392 5.9675 12.6825 6.10958 12.58 6.21567L10.519 8.2778C10.6291 8.50291 10.6868 8.75002 10.6878 9.00061C10.6878 9.44816 10.51 9.87739 10.1935 10.1939C9.87707 10.5103 9.44785 10.6881 9.0003 10.6881C8.55275 10.6881 8.12352 10.5103 7.80706 10.1939C7.49059 9.87739 7.3128 9.44816 7.3128 9.00061C7.31377 8.75002 7.37146 8.50291 7.48155 8.2778L6.21593 7.01161C6.11047 6.90613 6.05123 6.76308 6.05123 6.61392C6.05123 6.46477 6.11047 6.32172 6.21593 6.21624Z" fill="#1C89EE"/>
<path d="M9 9.5625C9.31066 9.5625 9.5625 9.31066 9.5625 9C9.5625 8.68934 9.31066 8.4375 9 8.4375C8.68934 8.4375 8.4375 8.68934 8.4375 9C8.4375 9.31066 8.68934 9.5625 9 9.5625Z" fill="#1C89EE"/>
</svg>
